<?xml version="1.0" encoding="UTF-8" ?>
<svg version="1.1" width="32" height="64" xmlns="http://www.w3.org/2000/svg" shape-rendering="crispEdges">
<rect x="13" y="4" width="1" height="1" fill="#341C27" />
<rect x="14" y="4" width="1" height="1" fill="#341C27" />
<rect x="15" y="4" width="1" height="1" fill="#341C27" />
<rect x="16" y="4" width="1" height="1" fill="#341C27" />
<rect x="17" y="4" width="1" height="1" fill="#341C27" />
<rect x="18" y="4" width="1" height="1" fill="#341C27" />
<rect x="11" y="5" width="1" height="1" fill="#341C27" />
<rect x="12" y="5" width="1" height="1" fill="#341C27" />
<rect x="13" y="5" width="1" height="1" fill="#341C27" />
<rect x="14" y="5" width="1" height="1" fill="#341C27" />
<rect x="15" y="5" width="1" height="1" fill="#4D2B32" />
<rect x="16" y="5" width="1" height="1" fill="#4D2B32" />
<rect x="17" y="5" width="1" height="1" fill="#341C27" />
<rect x="18" y="5" width="1" height="1" fill="#341C27" />
<rect x="19" y="5" width="1" height="1" fill="#341C27" />
<rect x="20" y="5" width="1" height="1" fill="#341C27" />
<rect x="10" y="6" width="1" height="1" fill="#341C27" />
<rect x="11" y="6" width="1" height="1" fill="#341C27" />
<rect x="12" y="6" width="1" height="1" fill="#341C27" />
<rect x="13" y="6" width="1" height="1" fill="#341C27" />
<rect x="14" y="6" width="1" height="1" fill="#4D2B32" />
<rect x="15" y="6" width="1" height="1" fill="#D7B594" />
<rect x="16" y="6" width="1" height="1" fill="#D7B594" />
<rect x="17" y="6" width="1" height="1" fill="#4D2B32" />
<rect x="18" y="6" width="1" height="1" fill="#341C27" />
<rect x="19" y="6" width="1" height="1" fill="#341C27" />
<rect x="20" y="6" width="1" height="1" fill="#341C27" />
<rect x="21" y="6" width="1" height="1" fill="#341C27" />
<rect x="10" y="7" width="1" height="1" fill="#341C27" />
<rect x="11" y="7" width="1" height="1" fill="#341C27" />
<rect x="12" y="7" width="1" height="1" fill="#341C27" />
<rect x="13" y="7" width="1" height="1" fill="#4D2B32" />
<rect x="14" y="7" width="1" height="1" fill="#D7B594" />
<rect x="15" y="7" width="1" height="1" fill="#E7D5B3" />
<rect x="16" y="7" width="1" height="1" fill="#E7D5B3" />
<rect x="17" y="7" width="1" height="1" fill="#D7B594" />
<rect x="18" y="7" width="1" height="1" fill="#4D2B32" />
<rect x="19" y="7" width="1" height="1" fill="#341C27" />
<rect x="20" y="7" width="1" height="1" fill="#341C27" />
<rect x="21" y="7" width="1" height="1" fill="#341C27" />
<rect x="22" y="7" width="1" height="1" fill="#341C27" />
<rect x="9" y="8" width="1" height="1" fill="#341C27" />
<rect x="10" y="8" width="1" height="1" fill="#341C27" />
<rect x="11" y="8" width="1" height="1" fill="#341C27" />
<rect x="12" y="8" width="1" height="1" fill="#341C27" />
<rect x="13" y="8" width="1" height="1" fill="#4D2B32" />
<rect x="14" y="8" width="1" height="1" fill="#D7B594" />
<rect x="15" y="8" width="1" height="1" fill="#E7D5B3" />
<rect x="16" y="8" width="1" height="1" fill="#E7D5B3" />
<rect x="17" y="8" width="1" height="1" fill="#D7B594" />
<rect x="18" y="8" width="1" height="1" fill="#4D2B32" />
<rect x="19" y="8" width="1" height="1" fill="#341C27" />
<rect x="20" y="8" width="1" height="1" fill="#341C27" />
<rect x="21" y="8" width="1" height="1" fill="#341C27" />
<rect x="22" y="8" width="1" height="1" fill="#341C27" />
<rect x="9" y="9" width="1" height="1" fill="#341C27" />
<rect x="10" y="9" width="1" height="1" fill="#341C27" />
<rect x="11" y="9" width="1" height="1" fill="#341C27" />
<rect x="12" y="9" width="1" height="1" fill="#4D2B32" />
<rect x="13" y="9" width="1" height="1" fill="#D7B594" />
<rect x="14" y="9" width="1" height="1" fill="#E7D5B3" />
<rect x="15" y="9" width="1" height="1" fill="#E7D5B3" />
<rect x="16" y="9" width="1" height="1" fill="#E7D5B3" />
<rect x="17" y="9" width="1" height="1" fill="#E7D5B3" />
<rect x="18" y="9" width="1" height="1" fill="#D7B594" />
<rect x="19" y="9" width="1" height="1" fill="#4D2B32" />
<rect x="20" y="9" width="1" height="1" fill="#341C27" />
<rect x="21" y="9" width="1" height="1" fill="#341C27" />
<rect x="22" y="9" width="1" height="1" fill="#341C27" />
<rect x="9" y="10" width="1" height="1" fill="#341C27" />
<rect x="10" y="10" width="1" height="1" fill="#4D2B32" />
<rect x="11" y="10" width="1" height="1" fill="#4D2B32" />
<rect x="12" y="10" width="1" height="1" fill="#D7B594" />
<rect x="13" y="10" width="1" height="1" fill="#E7D5B3" />
<rect x="14" y="10" width="1" height="1" fill="#E7D5B3" />
<rect x="15" y="10" width="1" height="1" fill="#E7D5B3" />
<rect x="16" y="10" width="1" height="1" fill="#E7D5B3" />
<rect x="17" y="10" width="1" height="1" fill="#E7D5B3" />
<rect x="18" y="10" width="1" height="1" fill="#E7D5B3" />
<rect x="19" y="10" width="1" height="1" fill="#D7B594" />
<rect x="20" y="10" width="1" height="1" fill="#4D2B32" />
<rect x="21" y="10" width="1" height="1" fill="#4D2B32" />
<rect x="22" y="10" width="1" height="1" fill="#341C27" />
<rect x="9" y="11" width="1" height="1" fill="#341C27" />
<rect x="10" y="11" width="1" height="1" fill="#E7D5B3" />
<rect x="11" y="11" width="1" height="1" fill="#577277" />
<rect x="12" y="11" width="1" height="1" fill="#577277" />
<rect x="13" y="11" width="1" height="1" fill="#E7D5B3" />
<rect x="14" y="11" width="1" height="1" fill="#E7D5B3" />
<rect x="15" y="11" width="1" height="1" fill="#E7D5B3" />
<rect x="16" y="11" width="1" height="1" fill="#E7D5B3" />
<rect x="17" y="11" width="1" height="1" fill="#577277" />
<rect x="18" y="11" width="1" height="1" fill="#577277" />
<rect x="19" y="11" width="1" height="1" fill="#D7B594" />
<rect x="20" y="11" width="1" height="1" fill="#D7B594" />
<rect x="21" y="11" width="1" height="1" fill="#D7B594" />
<rect x="22" y="11" width="1" height="1" fill="#341C27" />
<rect x="9" y="12" width="1" height="1" fill="#AD7757" />
<rect x="10" y="12" width="1" height="1" fill="#577277" />
<rect x="11" y="12" width="1" height="1" fill="#A8B5B2" />
<rect x="12" y="12" width="1" height="1" fill="#819796" />
<rect x="13" y="12" width="1" height="1" fill="#577277" />
<rect x="14" y="12" width="1" height="1" fill="#10141F" />
<rect x="15" y="12" width="1" height="1" fill="#10141F" />
<rect x="16" y="12" width="1" height="1" fill="#577277" />
<rect x="17" y="12" width="1" height="1" fill="#A8B5B2" />
<rect x="18" y="12" width="1" height="1" fill="#819796" />
<rect x="19" y="12" width="1" height="1" fill="#577277" />
<rect x="20" y="12" width="1" height="1" fill="#10141F" />
<rect x="21" y="12" width="1" height="1" fill="#10141F" />
<rect x="22" y="12" width="1" height="1" fill="#AD7757" />
<rect x="9" y="13" width="1" height="1" fill="#C09473" />
<rect x="10" y="13" width="1" height="1" fill="#394A50" />
<rect x="11" y="13" width="1" height="1" fill="#C7CFCC" />
<rect x="12" y="13" width="1" height="1" fill="#A8B5B2" />
<rect x="13" y="13" width="1" height="1" fill="#394A50" />
<rect x="14" y="13" width="1" height="1" fill="#D7B594" />
<rect x="15" y="13" width="1" height="1" fill="#D7B594" />
<rect x="16" y="13" width="1" height="1" fill="#394A50" />
<rect x="17" y="13" width="1" height="1" fill="#C7CFCC" />
<rect x="18" y="13" width="1" height="1" fill="#A8B5B2" />
<rect x="19" y="13" width="1" height="1" fill="#394A50" />
<rect x="20" y="13" width="1" height="1" fill="#E7D5B3" />
<rect x="21" y="13" width="1" height="1" fill="#E7D5B3" />
<rect x="22" y="13" width="1" height="1" fill="#C09473" />
<rect x="10" y="14" width="1" height="1" fill="#E7D5B3" />
<rect x="11" y="14" width="1" height="1" fill="#394A50" />
<rect x="12" y="14" width="1" height="1" fill="#394A50" />
<rect x="13" y="14" width="1" height="1" fill="#E7D5B3" />
<rect x="14" y="14" width="1" height="1" fill="#D7B594" />
<rect x="15" y="14" width="1" height="1" fill="#D7B594" />
<rect x="16" y="14" width="1" height="1" fill="#E7D5B3" />
<rect x="17" y="14" width="1" height="1" fill="#394A50" />
<rect x="18" y="14" width="1" height="1" fill="#394A50" />
<rect x="19" y="14" width="1" height="1" fill="#E7D5B3" />
<rect x="20" y="14" width="1" height="1" fill="#E7D5B3" />
<rect x="21" y="14" width="1" height="1" fill="#E7D5B3" />
<rect x="10" y="15" width="1" height="1" fill="#E3D1B0" />
<rect x="11" y="15" width="1" height="1" fill="#E7D5B3" />
<rect x="12" y="15" width="1" height="1" fill="#E7D5B3" />
<rect x="13" y="15" width="1" height="1" fill="#E7D5B3" />
<rect x="14" y="15" width="1" height="1" fill="#E7D5B3" />
<rect x="15" y="15" width="1" height="1" fill="#E7D5B3" />
<rect x="16" y="15" width="1" height="1" fill="#E7D5B3" />
<rect x="17" y="15" width="1" height="1" fill="#E7D5B3" />
<rect x="18" y="15" width="1" height="1" fill="#E7D5B3" />
<rect x="19" y="15" width="1" height="1" fill="#E7D5B3" />
<rect x="20" y="15" width="1" height="1" fill="#E7D5B3" />
<rect x="21" y="15" width="1" height="1" fill="#E7D5B3" />
<rect x="11" y="16" width="1" height="1" fill="#E3D1B0" />
<rect x="12" y="16" width="1" height="1" fill="#E7D5B3" />
<rect x="13" y="16" width="1" height="1" fill="#E7D5B3" />
<rect x="14" y="16" width="1" height="1" fill="#E7D5B3" />
<rect x="15" y="16" width="1" height="1" fill="#E7D5B3" />
<rect x="16" y="16" width="1" height="1" fill="#E7D5B3" />
<rect x="17" y="16" width="1" height="1" fill="#D7B594" />
<rect x="18" y="16" width="1" height="1" fill="#E7D5B3" />
<rect x="19" y="16" width="1" height="1" fill="#E7D5B3" />
<rect x="20" y="16" width="1" height="1" fill="#E7D5B3" />
<rect x="12" y="17" width="1" height="1" fill="#E3D1B0" />
<rect x="13" y="17" width="1" height="1" fill="#E7D5B3" />
<rect x="14" y="17" width="1" height="1" fill="#E7D5B3" />
<rect x="15" y="17" width="1" height="1" fill="#C09473" />
<rect x="16" y="17" width="1" height="1" fill="#C09473" />
<rect x="17" y="17" width="1" height="1" fill="#E7D5B3" />
<rect x="18" y="17" width="1" height="1" fill="#E3D1B0" />
<rect x="19" y="17" width="1" height="1" fill="#E7D5B3" />
<rect x="14" y="18" width="1" height="1" fill="#E3D1B0" />
<rect x="15" y="18" width="1" height="1" fill="#E7D5B3" />
<rect x="16" y="18" width="1" height="1" fill="#E7D5B3" />
<rect x="17" y="18" width="1" height="1" fill="#E3D1B0" />
<rect x="11" y="19" width="1" height="1" fill="#3C5E8B" />
<rect x="12" y="19" width="1" height="1" fill="#3C5E8B" />
<rect x="13" y="19" width="1" height="1" fill="#3C5E8B" />
<rect x="14" y="19" width="1" height="1" fill="#172038" />
<rect x="15" y="19" width="1" height="1" fill="#D7B594" />
<rect x="16" y="19" width="1" height="1" fill="#D7B594" />
<rect x="17" y="19" width="1" height="1" fill="#172038" />
<rect x="18" y="19" width="1" height="1" fill="#253A5E" />
<rect x="19" y="19" width="1" height="1" fill="#253A5E" />
<rect x="20" y="19" width="1" height="1" fill="#253A5E" />
<rect x="10" y="20" width="1" height="1" fill="#3C5E8B" />
<rect x="11" y="20" width="1" height="1" fill="#3C5E8B" />
<rect x="12" y="20" width="1" height="1" fill="#3C5E8B" />
<rect x="13" y="20" width="1" height="1" fill="#3C5E8B" />
<rect x="14" y="20" width="1" height="1" fill="#3C5E8B" />
<rect x="15" y="20" width="1" height="1" fill="#172038" />
<rect x="16" y="20" width="1" height="1" fill="#172038" />
<rect x="17" y="20" width="1" height="1" fill="#253A5E" />
<rect x="18" y="20" width="1" height="1" fill="#253A5E" />
<rect x="19" y="20" width="1" height="1" fill="#253A5E" />
<rect x="20" y="20" width="1" height="1" fill="#253A5E" />
<rect x="21" y="20" width="1" height="1" fill="#253A5E" />
<rect x="22" y="20" width="1" height="1" fill="#253A5E" />
<rect x="9" y="21" width="1" height="1" fill="#3C5E8B" />
<rect x="10" y="21" width="1" height="1" fill="#3C5E8B" />
<rect x="11" y="21" width="1" height="1" fill="#3C5E8B" />
<rect x="12" y="21" width="1" height="1" fill="#3C5E8B" />
<rect x="13" y="21" width="1" height="1" fill="#3C5E8B" />
<rect x="14" y="21" width="1" height="1" fill="#3C5E8B" />
<rect x="15" y="21" width="1" height="1" fill="#3C5E8B" />
<rect x="16" y="21" width="1" height="1" fill="#3C5E8B" />
<rect x="17" y="21" width="1" height="1" fill="#3C5E8B" />
<rect x="18" y="21" width="1" height="1" fill="#253A5E" />
<rect x="19" y="21" width="1" height="1" fill="#253A5E" />
<rect x="20" y="21" width="1" height="1" fill="#253A5E" />
<rect x="21" y="21" width="1" height="1" fill="#253A5E" />
<rect x="22" y="21" width="1" height="1" fill="#253A5E" />
<rect x="23" y="21" width="1" height="1" fill="#253A5E" />
<rect x="8" y="22" width="1" height="1" fill="#3C5E8B" />
<rect x="9" y="22" width="1" height="1" fill="#3C5E8B" />
<rect x="10" y="22" width="1" height="1" fill="#3C5E8B" />
<rect x="11" y="22" width="1" height="1" fill="#253A5E" />
<rect x="12" y="22" width="1" height="1" fill="#3C5E8B" />
<rect x="13" y="22" width="1" height="1" fill="#3C5E8B" />
<rect x="14" y="22" width="1" height="1" fill="#3C5E8B" />
<rect x="15" y="22" width="1" height="1" fill="#3C5E8B" />
<rect x="16" y="22" width="1" height="1" fill="#3C5E8B" />
<rect x="17" y="22" width="1" height="1" fill="#3C5E8B" />
<rect x="18" y="22" width="1" height="1" fill="#3C5E8B" />
<rect x="19" y="22" width="1" height="1" fill="#253A5E" />
<rect x="20" y="22" width="1" height="1" fill="#253A5E" />
<rect x="21" y="22" width="1" height="1" fill="#172038" />
<rect x="22" y="22" width="1" height="1" fill="#253A5E" />
<rect x="23" y="22" width="1" height="1" fill="#253A5E" />
<rect x="24" y="22" width="1" height="1" fill="#253A5E" />
<rect x="7" y="23" width="1" height="1" fill="#3C5E8B" />
<rect x="8" y="23" width="1" height="1" fill="#3C5E8B" />
<rect x="9" y="23" width="1" height="1" fill="#3C5E8B" />
<rect x="10" y="23" width="1" height="1" fill="#253A5E" />
<rect x="12" y="23" width="1" height="1" fill="#3C5E8B" />
<rect x="13" y="23" width="1" height="1" fill="#3C5E8B" />
<rect x="14" y="23" width="1" height="1" fill="#3C5E8B" />
<rect x="15" y="23" width="1" height="1" fill="#3C5E8B" />
<rect x="16" y="23" width="1" height="1" fill="#3C5E8B" />
<rect x="17" y="23" width="1" height="1" fill="#3C5E8B" />
<rect x="18" y="23" width="1" height="1" fill="#3C5E8B" />
<rect x="19" y="23" width="1" height="1" fill="#3C5E8B" />
<rect x="20" y="23" width="1" height="1" fill="#253A5E" />
<rect x="22" y="23" width="1" height="1" fill="#172038" />
<rect x="23" y="23" width="1" height="1" fill="#253A5E" />
<rect x="24" y="23" width="1" height="1" fill="#172038" />
<rect x="7" y="24" width="1" height="1" fill="#D7B594" />
<rect x="8" y="24" width="1" height="1" fill="#C09473" />
<rect x="9" y="24" width="1" height="1" fill="#253A5E" />
<rect x="12" y="24" width="1" height="1" fill="#3C5E8B" />
<rect x="13" y="24" width="1" height="1" fill="#3C5E8B" />
<rect x="14" y="24" width="1" height="1" fill="#3C5E8B" />
<rect x="15" y="24" width="1" height="1" fill="#3C5E8B" />
<rect x="16" y="24" width="1" height="1" fill="#3C5E8B" />
<rect x="17" y="24" width="1" height="1" fill="#3C5E8B" />
<rect x="18" y="24" width="1" height="1" fill="#3C5E8B" />
<rect x="19" y="24" width="1" height="1" fill="#3C5E8B" />
<rect x="20" y="24" width="1" height="1" fill="#253A5E" />
<rect x="23" y="24" width="1" height="1" fill="#172038" />
<rect x="24" y="24" width="1" height="1" fill="#AD7757" />
<rect x="25" y="24" width="1" height="1" fill="#D7B594" />
<rect x="7" y="25" width="1" height="1" fill="#E7D5B3" />
<rect x="8" y="25" width="1" height="1" fill="#D7B594" />
<rect x="12" y="25" width="1" height="1" fill="#3C5E8B" />
<rect x="13" y="25" width="1" height="1" fill="#3C5E8B" />
<rect x="14" y="25" width="1" height="1" fill="#3C5E8B" />
<rect x="15" y="25" width="1" height="1" fill="#3C5E8B" />
<rect x="16" y="25" width="1" height="1" fill="#3C5E8B" />
<rect x="17" y="25" width="1" height="1" fill="#3C5E8B" />
<rect x="18" y="25" width="1" height="1" fill="#3C5E8B" />
<rect x="19" y="25" width="1" height="1" fill="#3C5E8B" />
<rect x="20" y="25" width="1" height="1" fill="#253A5E" />
<rect x="24" y="25" width="1" height="1" fill="#D7B594" />
<rect x="25" y="25" width="1" height="1" fill="#E7D5B3" />
<rect x="7" y="26" width="1" height="1" fill="#E7D5B3" />
<rect x="8" y="26" width="1" height="1" fill="#E7D5B3" />
<rect x="9" y="26" width="1" height="1" fill="#D7B594" />
<rect x="12" y="26" width="1" height="1" fill="#3C5E8B" />
<rect x="13" y="26" width="1" height="1" fill="#3C5E8B" />
<rect x="14" y="26" width="1" height="1" fill="#3C5E8B" />
<rect x="15" y="26" width="1" height="1" fill="#3C5E8B" />
<rect x="16" y="26" width="1" height="1" fill="#3C5E8B" />
<rect x="17" y="26" width="1" height="1" fill="#3C5E8B" />
<rect x="18" y="26" width="1" height="1" fill="#3C5E8B" />
<rect x="19" y="26" width="1" height="1" fill="#3C5E8B" />
<rect x="20" y="26" width="1" height="1" fill="#253A5E" />
<rect x="23" y="26" width="1" height="1" fill="#D7B594" />
<rect x="24" y="26" width="1" height="1" fill="#E7D5B3" />
<rect x="25" y="26" width="1" height="1" fill="#E7D5B3" />
<rect x="8" y="27" width="1" height="1" fill="#E7D5B3" />
<rect x="9" y="27" width="1" height="1" fill="#E7D5B3" />
<rect x="10" y="27" width="1" height="1" fill="#D7B594" />
<rect x="12" y="27" width="1" height="1" fill="#3C5E8B" />
<rect x="13" y="27" width="1" height="1" fill="#3C5E8B" />
<rect x="14" y="27" width="1" height="1" fill="#3C5E8B" />
<rect x="15" y="27" width="1" height="1" fill="#3C5E8B" />
<rect x="16" y="27" width="1" height="1" fill="#3C5E8B" />
<rect x="17" y="27" width="1" height="1" fill="#3C5E8B" />
<rect x="18" y="27" width="1" height="1" fill="#3C5E8B" />
<rect x="19" y="27" width="1" height="1" fill="#3C5E8B" />
<rect x="20" y="27" width="1" height="1" fill="#253A5E" />
<rect x="22" y="27" width="1" height="1" fill="#D7B594" />
<rect x="23" y="27" width="1" height="1" fill="#E7D5B3" />
<rect x="24" y="27" width="1" height="1" fill="#E7D5B3" />
<rect x="9" y="28" width="1" height="1" fill="#E7D5B3" />
<rect x="10" y="28" width="1" height="1" fill="#E7D5B3" />
<rect x="11" y="28" width="1" height="1" fill="#D7B594" />
<rect x="12" y="28" width="1" height="1" fill="#241527" />
<rect x="13" y="28" width="1" height="1" fill="#241527" />
<rect x="14" y="28" width="1" height="1" fill="#341C27" />
<rect x="15" y="28" width="1" height="1" fill="#EBEDE9" />
<rect x="16" y="28" width="1" height="1" fill="#C7CFCC" />
<rect x="17" y="28" width="1" height="1" fill="#341C27" />
<rect x="18" y="28" width="1" height="1" fill="#341C27" />
<rect x="19" y="28" width="1" height="1" fill="#241527" />
<rect x="20" y="28" width="1" height="1" fill="#241527" />
<rect x="21" y="28" width="1" height="1" fill="#D7B594" />
<rect x="22" y="28" width="1" height="1" fill="#E7D5B3" />
<rect x="23" y="28" width="1" height="1" fill="#E7D5B3" />
<rect x="10" y="29" width="1" height="1" fill="#E7D5B3" />
<rect x="11" y="29" width="1" height="1" fill="#E7D5B3" />
<rect x="12" y="29" width="1" height="1" fill="#D7B594" />
<rect x="13" y="29" width="1" height="1" fill="#4D2B32" />
<rect x="14" y="29" width="1" height="1" fill="#4D2B32" />
<rect x="15" y="29" width="1" height="1" fill="#4D2B32" />
<rect x="16" y="29" width="1" height="1" fill="#341C27" />
<rect x="17" y="29" width="1" height="1" fill="#4D2B32" />
<rect x="18" y="29" width="1" height="1" fill="#4D2B32" />
<rect x="19" y="29" width="1" height="1" fill="#4D2B32" />
<rect x="20" y="29" width="1" height="1" fill="#D7B594" />
<rect x="21" y="29" width="1" height="1" fill="#E7D5B3" />
<rect x="22" y="29" width="1" height="1" fill="#E7D5B3" />
<rect x="11" y="30" width="1" height="1" fill="#E7D5B3" />
<rect x="12" y="30" width="1" height="1" fill="#D7B594" />
<rect x="13" y="30" width="1" height="1" fill="#4D2B32" />
<rect x="14" y="30" width="1" height="1" fill="#4D2B32" />
<rect x="15" y="30" width="1" height="1" fill="#4D2B32" />
<rect x="16" y="30" width="1" height="1" fill="#341C27" />
<rect x="17" y="30" width="1" height="1" fill="#4D2B32" />
<rect x="18" y="30" width="1" height="1" fill="#4D2B32" />
<rect x="19" y="30" width="1" height="1" fill="#4D2B32" />
<rect x="20" y="30" width="1" height="1" fill="#D7B594" />
<rect x="21" y="30" width="1" height="1" fill="#E7D5B3" />
<rect x="12" y="31" width="1" height="1" fill="#4D2B32" />
<rect x="13" y="31" width="1" height="1" fill="#4D2B32" />
<rect x="14" y="31" width="1" height="1" fill="#4D2B32" />
<rect x="15" y="31" width="1" height="1" fill="#4D2B32" />
<rect x="16" y="31" width="1" height="1" fill="#4D2B32" />
<rect x="17" y="31" width="1" height="1" fill="#4D2B32" />
<rect x="18" y="31" width="1" height="1" fill="#4D2B32" />
<rect x="19" y="31" width="1" height="1" fill="#4D2B32" />
<rect x="20" y="31" width="1" height="1" fill="#341C27" />
<rect x="12" y="32" width="1" height="1" fill="#4D2B32" />
<rect x="13" y="32" width="1" height="1" fill="#4D2B32" />
<rect x="14" y="32" width="1" height="1" fill="#4D2B32" />
<rect x="15" y="32" width="1" height="1" fill="#4D2B32" />
<rect x="16" y="32" width="1" height="1" fill="#4D2B32" />
<rect x="17" y="32" width="1" height="1" fill="#4D2B32" />
<rect x="18" y="32" width="1" height="1" fill="#4D2B32" />
<rect x="19" y="32" width="1" height="1" fill="#4D2B32" />
<rect x="20" y="32" width="1" height="1" fill="#341C27" />
<rect x="12" y="33" width="1" height="1" fill="#4D2B32" />
<rect x="13" y="33" width="1" height="1" fill="#4D2B32" />
<rect x="14" y="33" width="1" height="1" fill="#4D2B32" />
<rect x="15" y="33" width="1" height="1" fill="#4D2B32" />
<rect x="16" y="33" width="1" height="1" fill="#4D2B32" />
<rect x="17" y="33" width="1" height="1" fill="#4D2B32" />
<rect x="18" y="33" width="1" height="1" fill="#4D2B32" />
<rect x="19" y="33" width="1" height="1" fill="#4D2B32" />
<rect x="20" y="33" width="1" height="1" fill="#341C27" />
<rect x="12" y="34" width="1" height="1" fill="#4D2B32" />
<rect x="13" y="34" width="1" height="1" fill="#4D2B32" />
<rect x="14" y="34" width="1" height="1" fill="#341C27" />
<rect x="18" y="34" width="1" height="1" fill="#4D2B32" />
<rect x="19" y="34" width="1" height="1" fill="#4D2B32" />
<rect x="20" y="34" width="1" height="1" fill="#341C27" />
<rect x="12" y="35" width="1" height="1" fill="#4D2B32" />
<rect x="13" y="35" width="1" height="1" fill="#4D2B32" />
<rect x="14" y="35" width="1" height="1" fill="#341C27" />
<rect x="18" y="35" width="1" height="1" fill="#4D2B32" />
<rect x="19" y="35" width="1" height="1" fill="#4D2B32" />
<rect x="20" y="35" width="1" height="1" fill="#341C27" />
<rect x="12" y="36" width="1" height="1" fill="#4D2B32" />
<rect x="13" y="36" width="1" height="1" fill="#4D2B32" />
<rect x="14" y="36" width="1" height="1" fill="#341C27" />
<rect x="18" y="36" width="1" height="1" fill="#4D2B32" />
<rect x="19" y="36" width="1" height="1" fill="#4D2B32" />
<rect x="20" y="36" width="1" height="1" fill="#341C27" />
<rect x="12" y="37" width="1" height="1" fill="#4D2B32" />
<rect x="13" y="37" width="1" height="1" fill="#4D2B32" />
<rect x="14" y="37" width="1" height="1" fill="#341C27" />
<rect x="18" y="37" width="1" height="1" fill="#4D2B32" />
<rect x="19" y="37" width="1" height="1" fill="#4D2B32" />
<rect x="20" y="37" width="1" height="1" fill="#341C27" />
<rect x="12" y="38" width="1" height="1" fill="#4D2B32" />
<rect x="13" y="38" width="1" height="1" fill="#4D2B32" />
<rect x="14" y="38" width="1" height="1" fill="#341C27" />
<rect x="18" y="38" width="1" height="1" fill="#4D2B32" />
<rect x="19" y="38" width="1" height="1" fill="#4D2B32" />
<rect x="20" y="38" width="1" height="1" fill="#341C27" />
<rect x="12" y="39" width="1" height="1" fill="#4D2B32" />
<rect x="13" y="39" width="1" height="1" fill="#4D2B32" />
<rect x="14" y="39" width="1" height="1" fill="#341C27" />
<rect x="18" y="39" width="1" height="1" fill="#4D2B32" />
<rect x="19" y="39" width="1" height="1" fill="#4D2B32" />
<rect x="20" y="39" width="1" height="1" fill="#341C27" />
<rect x="12" y="40" width="1" height="1" fill="#4D2B32" />
<rect x="13" y="40" width="1" height="1" fill="#4D2B32" />
<rect x="14" y="40" width="1" height="1" fill="#341C27" />
<rect x="18" y="40" width="1" height="1" fill="#4D2B32" />
<rect x="19" y="40" width="1" height="1" fill="#4D2B32" />
<rect x="20" y="40" width="1" height="1" fill="#341C27" />
<rect x="12" y="41" width="1" height="1" fill="#341C27" />
<rect x="13" y="41" width="1" height="1" fill="#341C27" />
<rect x="14" y="41" width="1" height="1" fill="#341C27" />
<rect x="18" y="41" width="1" height="1" fill="#4D2B32" />
<rect x="19" y="41" width="1" height="1" fill="#4D2B32" />
<rect x="20" y="41" width="1" height="1" fill="#341C27" />
<rect x="11" y="42" width="1" height="1" fill="#C7CFCC" />
<rect x="12" y="42" width="1" height="1" fill="#C7CFCC" />
<rect x="13" y="42" width="1" height="1" fill="#819796" />
<rect x="14" y="42" width="1" height="1" fill="#577277" />
<rect x="18" y="42" width="1" height="1" fill="#341C27" />
<rect x="19" y="42" width="1" height="1" fill="#341C27" />
<rect x="20" y="42" width="1" height="1" fill="#341C27" />
<rect x="10" y="43" width="1" height="1" fill="#A8B5B2" />
<rect x="11" y="43" width="1" height="1" fill="#A8B5B2" />
<rect x="12" y="43" width="1" height="1" fill="#819796" />
<rect x="13" y="43" width="1" height="1" fill="#577277" />
<rect x="14" y="43" width="1" height="1" fill="#577277" />
<rect x="17" y="43" width="1" height="1" fill="#A8B5B2" />
<rect x="18" y="43" width="1" height="1" fill="#A8B5B2" />
<rect x="19" y="43" width="1" height="1" fill="#577277" />
<rect x="20" y="43" width="1" height="1" fill="#394A50" />
<rect x="10" y="44" width="1" height="1" fill="#394A50" />
<rect x="11" y="44" width="1" height="1" fill="#394A50" />
<rect x="12" y="44" width="1" height="1" fill="#394A50" />
<rect x="13" y="44" width="1" height="1" fill="#394A50" />
<rect x="14" y="44" width="1" height="1" fill="#394A50" />
<rect x="16" y="44" width="1" height="1" fill="#819796" />
<rect x="17" y="44" width="1" height="1" fill="#819796" />
<rect x="18" y="44" width="1" height="1" fill="#577277" />
<rect x="19" y="44" width="1" height="1" fill="#394A50" />
<rect x="20" y="44" width="1" height="1" fill="#394A50" />
<rect x="16" y="45" width="1" height="1" fill="#202E37" />
<rect x="17" y="45" width="1" height="1" fill="#202E37" />
<rect x="18" y="45" width="1" height="1" fill="#202E37" />
<rect x="19" y="45" width="1" height="1" fill="#202E37" />
<rect x="20" y="45" width="1" height="1" fill="#202E37" />
</svg>